<?xml version="1.0" standalone="no"?>
<!DOCTYPE svg PUBLIC "-//W3C//DTD SVG 20010904//EN"
 "http://www.w3.org/TR/2001/REC-SVG-20010904/DTD/svg10.dtd">
<svg version="1.0" xmlns="http://www.w3.org/2000/svg"
 width="700.000000pt" height="700.000000pt" viewBox="0 0 700.000000 700.000000"
 preserveAspectRatio="xMidYMid meet">
<metadata>
Created by potrace 1.11, written by Peter Selinger 2001-2013
</metadata>
<g transform="translate(0.000000,700.000000) scale(0.100000,-0.100000)"
fill="#000000" stroke="none">
<path d="M4154 5851 c-29 -10 -82 -36 -119 -58 -69 -40 -87 -42 -140 -12 -5 3
-28 7 -50 8 -22 1 -44 7 -50 12 -14 14 -48 11 -39 -3 5 -8 2 -9 -10 -5 -10 4
-20 7 -22 7 -3 0 -3 4 0 8 3 5 -25 7 -62 5 -71 -3 -75 -3 -137 -21 -40 -11
-96 -23 -125 -26 -9 -1 -21 -5 -28 -10 -6 -4 -12 -5 -12 -2 0 7 -90 -32 -108
-46 -7 -6 -25 -12 -40 -14 -59 -7 -167 -49 -237 -93 -22 -14 -44 -26 -50 -26
-5 -1 -9 -7 -7 -14 2 -9 -4 -12 -18 -8 -11 3 -20 2 -20 -3 0 -4 -24 -19 -54
-33 -30 -15 -78 -50 -107 -79 -29 -29 -68 -60 -88 -69 -20 -9 -54 -33 -76 -54
-22 -20 -57 -48 -78 -61 -36 -24 -52 -37 -118 -96 -27 -24 -89 -116 -110 -161
-8 -18 -20 -27 -35 -27 -38 0 -98 -29 -119 -58 -13 -17 -21 -48 -23 -89 l-4
-63 -42 -1 c-55 -1 -82 -6 -114 -23 -66 -35 -104 -97 -97 -157 6 -42 5 -36 60
-369 54 -322 47 -286 79 -475 14 -82 28 -168 31 -190 3 -22 10 -62 15 -90 5
-27 12 -68 15 -90 3 -23 8 -52 10 -65 3 -14 7 -38 9 -55 3 -16 7 -43 10 -60 3
-16 12 -73 21 -125 8 -52 17 -104 19 -115 2 -11 6 -41 10 -66 7 -45 11 -70 21
-126 4 -26 28 -170 41 -252 3 -18 8 -43 10 -55 2 -11 7 -39 9 -60 3 -21 7 -42
9 -45 2 -3 7 -35 11 -71 11 -104 44 -152 128 -188 21 -9 404 -11 1587 -9
l1558 2 43 30 c50 35 75 74 82 130 3 22 15 83 27 135 25 111 29 127 35 160 4
24 21 102 85 400 18 80 33 152 35 160 2 8 10 51 20 95 9 44 27 130 40 190 22
99 122 567 130 605 6 31 58 270 87 405 17 77 33 168 35 201 5 60 4 63 -32 103
-22 24 -34 45 -29 50 5 5 45 32 89 62 144 97 157 109 150 138 -4 14 -12 33
-19 41 -7 8 -47 74 -89 145 -108 180 -199 307 -282 392 -63 63 -78 73 -140 92
-72 21 -289 61 -336 61 -19 0 -39 -14 -70 -48 -197 -215 -414 -232 -578 -46
-40 46 -111 173 -111 200 0 24 -52 41 -205 68 -177 31 -213 31 -281 7z m1581
-1081 c3 -5 -1 -10 -9 -10 -9 0 -16 5 -16 10 0 6 4 10 9 10 6 0 13 -4 16 -10z"/>
<path d="M350 5042 c-40 -3 -89 -21 -107 -38 -28 -27 -53 -82 -53 -117 0 -52
32 -111 76 -138 l38 -23 508 0 c503 0 509 -1 513 -21 5 -23 41 -239 49 -300 4
-22 9 -53 12 -68 6 -29 7 -38 19 -117 3 -25 10 -67 15 -95 16 -86 20 -109 26
-154 3 -25 7 -48 9 -51 2 -3 7 -33 10 -65 4 -33 9 -62 10 -65 2 -3 6 -26 10
-50 3 -25 10 -67 15 -95 5 -27 11 -63 14 -80 9 -64 68 -424 82 -505 9 -47 17
-98 19 -115 2 -16 6 -43 9 -60 11 -65 36 -212 41 -250 3 -22 10 -62 15 -90 5
-27 12 -68 15 -90 3 -22 17 -105 30 -185 13 -80 27 -162 30 -183 4 -22 15 -86
24 -143 18 -102 18 -106 -1 -129 -88 -113 -103 -326 -32 -471 51 -104 172
-192 301 -218 43 -9 465 -12 1678 -11 1532 1 1622 2 1653 19 36 19 62 67 62
114 0 41 -39 95 -80 109 -26 9 -430 12 -1640 12 -883 1 -1614 3 -1625 5 -90
19 -136 75 -141 170 -3 74 21 128 69 153 30 16 120 18 1438 18 1385 1 1406 1
1440 21 77 45 83 156 11 209 -27 20 -45 20 -1419 23 -1312 2 -1392 3 -1397 20
-3 9 -14 73 -25 142 -11 69 -22 139 -25 155 -2 17 -7 44 -10 60 -4 17 -22 127
-41 245 -19 118 -37 226 -40 240 -3 14 -7 43 -10 65 -3 22 -7 50 -9 61 -6 31
-16 93 -22 134 -2 19 -6 42 -9 50 -2 8 -7 35 -10 60 -3 25 -10 70 -15 100 -5
30 -12 69 -14 85 -3 17 -24 140 -46 275 -47 283 -47 281 -55 340 -4 24 -8 47
-10 50 -1 3 -6 28 -9 55 -4 28 -8 61 -11 75 -3 14 -7 39 -9 55 -3 17 -10 62
-17 100 -6 39 -13 84 -15 100 -2 17 -9 57 -15 90 -6 33 -13 74 -16 90 -25 167
-57 326 -72 350 -25 44 -77 75 -125 76 -178 2 -1088 3 -1116 1z"/>
<path d="M2318 1064 c-189 -45 -357 -216 -397 -402 -25 -118 -7 -261 45 -364
64 -126 191 -230 334 -272 72 -22 217 -22 290 0 150 44 283 159 344 296 128
291 -17 622 -320 729 -74 26 -215 33 -296 13z"/>
<path d="M4755 1069 c-108 -24 -209 -80 -282 -157 -48 -50 -105 -140 -118
-187 -4 -17 -9 -34 -11 -40 -47 -173 -6 -357 112 -493 172 -200 475 -245 692
-102 171 112 258 283 248 482 -13 229 -157 411 -386 488 -45 15 -203 21 -255
9z"/>
</g>
</svg>
